<svg width="24" height="24" viewBox="0 0 24 24" fill="none" xmlns="http://www.w3.org/2000/svg">
<path d="M22 4H2M3 4V4.656C3 5.623 3.228 6.571 3.66 7.4L4.208 8.454C5.186 10.33 5.263 12.652 4.414 14.609L3.294 17.191C3.09923 17.6429 2.99917 18.1299 3 18.622V20M21 4V4.656C21.0029 5.61032 20.7765 6.55136 20.34 7.4L19.791 8.454C18.814 10.33 18.737 12.652 19.586 14.609L20.706 17.191C20.9 17.635 21 18.125 21 18.622V20M5 12H19M4.5 15H19.5M14 7C13.755 7.613 13.254 8 12.706 8H11.294C10.746 8 10.245 7.613 10 7" stroke="#8200DB" stroke-width="1.5" stroke-linecap="round" stroke-linejoin="round"/>
</svg>
