<svg width="24" height="24" viewBox="0 0 24 24" fill="none" xmlns="http://www.w3.org/2000/svg">
<path d="M15.4983 18C15.4983 18.4596 15.4077 18.9148 15.2318 19.3394C15.0559 19.764 14.7981 20.1499 14.4731 20.4749C14.1481 20.7999 13.7623 21.0577 13.3376 21.2336C12.913 21.4095 12.4579 21.5 11.9983 21.5C11.5386 21.5 11.0835 21.4095 10.6589 21.2336C10.2342 21.0577 9.84839 20.7999 9.52338 20.4749C9.19838 20.1499 8.94057 19.764 8.76468 19.3394C8.58879 18.9148 8.49826 18.4596 8.49826 18M19.2293 18H4.76826C4.41843 17.9999 4.0765 17.896 3.7857 17.7015C3.49489 17.5071 3.26827 17.2308 3.13448 16.9075C3.00069 16.5843 2.96574 16.2287 3.03405 15.8856C3.10236 15.5425 3.27087 15.2273 3.51826 14.98L4.12026 14.377C4.68254 13.8144 4.99835 13.0514 4.99826 12.256V9.5C4.99826 7.64348 5.73575 5.86301 7.04851 4.55025C8.36126 3.2375 10.1417 2.5 11.9983 2.5C13.8548 2.5 15.6352 3.2375 16.948 4.55025C18.2608 5.86301 18.9983 7.64348 18.9983 9.5V12.256C18.9984 13.0516 19.3146 13.8145 19.8773 14.377L20.4803 14.98C20.7272 15.2275 20.8952 15.5426 20.9633 15.8856C21.0313 16.2285 20.9963 16.5839 20.8625 16.9069C20.7288 17.23 20.5025 17.5062 20.212 17.7007C19.9215 17.8952 19.5789 17.9994 19.2293 18Z" stroke="#155DFC" stroke-width="1.5" stroke-linecap="round" stroke-linejoin="round"/>
</svg>
