<svg width="36" height="36" viewBox="0 0 36 36" fill="none" xmlns="http://www.w3.org/2000/svg">
<g filter="url(#filter0_d_2292_7040)">
<rect x="2" y="1" width="32" height="32" rx="16" fill="#8200DB"/>
<path d="M15.3333 19.6667L21.1467 19.182C22.966 19.0307 23.374 18.6333 23.5753 16.8193L24 13M14 13H15M24.6667 13H22.6667" stroke="#FAFAFA" stroke-linecap="round"/>
<path d="M17 13.6667C17 13.6667 17.6667 13.6667 18.3333 15C18.3333 15 20.4513 11.6667 22.3333 11" stroke="#FAFAFA" stroke-linecap="round" stroke-linejoin="round"/>
<path d="M14.0013 23.6667C14.7377 23.6667 15.3346 23.0697 15.3346 22.3333C15.3346 21.597 14.7377 21 14.0013 21C13.2649 21 12.668 21.597 12.668 22.3333C12.668 23.0697 13.2649 23.6667 14.0013 23.6667Z" stroke="#FAFAFA"/>
<path d="M21.3333 23.6667C22.0697 23.6667 22.6667 23.0697 22.6667 22.3333C22.6667 21.597 22.0697 21 21.3333 21C20.597 21 20 21.597 20 22.3333C20 23.0697 20.597 23.6667 21.3333 23.6667Z" stroke="#FAFAFA"/>
<path d="M15.334 22.333H20.0007M11.334 10.333H11.978C12.608 10.333 13.1567 10.7497 13.3093 11.343L15.294 19.0503C15.3432 19.2431 15.3478 19.4445 15.3074 19.6393C15.2669 19.8341 15.1825 20.0171 15.0607 20.1743L14.4213 20.9997" stroke="#FAFAFA" stroke-linecap="round"/>
</g>
<defs>
<filter id="filter0_d_2292_7040" x="0" y="0" width="36" height="36" filterUnits="userSpaceOnUse" color-interpolation-filters="sRGB">
<feFlood flood-opacity="0" result="BackgroundImageFix"/>
<feColorMatrix in="SourceAlpha" type="matrix" values="0 0 0 0 0 0 0 0 0 0 0 0 0 0 0 0 0 0 127 0" result="hardAlpha"/>
<feOffset dy="1"/>
<feGaussianBlur stdDeviation="1"/>
<feColorMatrix type="matrix" values="0 0 0 0 0.0392157 0 0 0 0 0.0496732 0 0 0 0 0.0705882 0 0 0 0.05 0"/>
<feBlend mode="normal" in2="BackgroundImageFix" result="effect1_dropShadow_2292_7040"/>
<feBlend mode="normal" in="SourceGraphic" in2="effect1_dropShadow_2292_7040" result="shape"/>
</filter>
</defs>
</svg>
