<svg width="18" height="22" viewBox="0 0 18 22" fill="none" xmlns="http://www.w3.org/2000/svg">
<path d="M7.75 9.75H4.75M10.75 5.75H4.75M0.75 17.396V6.804C0.75 3.95 0.75 2.524 1.629 1.637C2.507 0.75 3.922 0.75 6.75 0.75H10.75C13.578 0.75 14.993 0.75 15.871 1.637C16.75 2.523 16.75 3.95 16.75 6.804V17.396C16.75 18.907 16.75 19.663 16.288 19.961C15.533 20.447 14.366 19.427 13.779 19.057C13.294 18.751 13.052 18.599 12.782 18.59C12.492 18.58 12.245 18.727 11.721 19.057L9.81 20.262C9.294 20.587 9.037 20.75 8.75 20.75C8.463 20.75 8.206 20.587 7.69 20.262L5.78 19.057C5.294 18.751 5.052 18.599 4.783 18.59C4.492 18.58 4.245 18.727 3.721 19.057C3.134 19.427 1.967 20.447 1.211 19.961C0.75 19.663 0.75 18.908 0.75 17.396Z" stroke="#F54900" stroke-width="1.5" stroke-linecap="round" stroke-linejoin="round"/>
</svg>
