<svg width="24" height="24" viewBox="0 0 24 24" fill="none" xmlns="http://www.w3.org/2000/svg">
<path d="M24.0002 2V6C24.0002 6.552 23.5532 7 23.0002 7C22.4473 7 22.0002 6.552 22.0002 6V3.414L17.9373 7.476C16.5933 8.82 14.4062 8.821 13.0623 7.476L10.5232 4.938C9.95825 4.373 9.04025 4.375 8.47625 4.938L1.70725 11.707C1.51225 11.902 1.25625 12 1.00025 12C0.74425 12 0.48825 11.902 0.29325 11.707C-0.09775 11.316 -0.09775 10.684 0.29325 10.293L7.06225 3.524C8.40625 2.18 10.5933 2.179 11.9373 3.524L14.4762 6.062C15.0412 6.628 15.9593 6.625 16.5233 6.062L20.5852 2H17.9993C17.4463 2 16.9993 1.552 16.9993 1C16.9993 0.448 17.4463 0 17.9993 0H21.9993C23.1023 0 24.0002 0.897 24.0002 2ZM21.6852 16.267L18.6453 15.761C18.2712 15.699 18.0002 15.379 18.0002 15C18.0002 14.448 18.4482 14 19.0002 14H21.2682C21.6243 14 21.9562 14.191 22.1353 14.501C22.4093 14.979 23.0202 15.144 23.5012 14.865C23.9792 14.589 24.1432 13.977 23.8652 13.499C23.3312 12.575 22.3353 12 21.2673 12H20.9993V11C20.9993 10.448 20.5522 10 19.9993 10C19.4463 10 18.9993 10.448 18.9993 11V12C17.3453 12 15.9992 13.346 15.9992 15C15.9992 16.359 16.9732 17.51 18.3142 17.733L21.3542 18.239C21.7283 18.301 21.9993 18.621 21.9993 19C21.9993 19.552 21.5513 20 20.9993 20H18.7313C18.3752 20 18.0433 19.809 17.8643 19.499C17.5893 19.02 16.9762 18.854 16.4982 19.135C16.0202 19.411 15.8563 20.023 16.1343 20.501C16.6683 21.426 17.6642 22 18.7323 22H19.0002V23C19.0002 23.553 19.4473 24 20.0002 24C20.5532 24 21.0002 23.553 21.0002 23V22C22.6542 22 24.0002 20.654 24.0002 19C24.0002 17.641 23.0262 16.49 21.6852 16.267ZM2.00025 14C1.44725 14 1.00025 14.447 1.00025 15V23C1.00025 23.553 1.44725 24 2.00025 24C2.55325 24 3.00025 23.553 3.00025 23V15C3.00025 14.447 2.55325 14 2.00025 14ZM7.00025 9.5C6.44725 9.5 6.00025 9.948 6.00025 10.5V23C6.00025 23.553 6.44725 24 7.00025 24C7.55325 24 8.00025 23.553 8.00025 23V10.5C8.00025 9.948 7.55325 9.5 7.00025 9.5ZM12.0002 9.5C11.4473 9.5 11.0002 9.948 11.0002 10.5V23C11.0002 23.553 11.4473 24 12.0002 24C12.5532 24 13.0002 23.553 13.0002 23V10.5C13.0002 9.948 12.5532 9.5 12.0002 9.5Z" fill="#008236"/>
</svg>
