<svg width="12" height="12" viewBox="0 0 12 12" fill="none" xmlns="http://www.w3.org/2000/svg">
<path d="M6.5 5.5C6.5 4.96957 6.28929 4.46086 5.91421 4.08579C5.53914 3.71071 5.03043 3.5 4.5 3.5C3.96957 3.5 3.46086 3.71071 3.08579 4.08579C2.71071 4.46086 2.5 4.96957 2.5 5.5C2.5 6.03043 2.71071 6.53914 3.08579 6.91421C3.46086 7.28929 3.96957 7.5 4.5 7.5C5.03043 7.5 5.53914 7.28929 5.91421 6.91421C6.28929 6.53914 6.5 6.03043 6.5 5.5Z" stroke="#A1A1A1" stroke-linecap="round" stroke-linejoin="round"/>
<path d="M5.5195 3.7794C5.45641 3.33064 5.5476 2.87375 5.77813 2.48359C6.00866 2.09343 6.36486 1.79312 6.78838 1.63187C7.2119 1.47062 7.67763 1.45798 8.10927 1.59603C8.54091 1.73408 8.91287 2.01462 9.16421 2.39171C9.41556 2.7688 9.53139 3.22007 9.49273 3.67159C9.45407 4.12312 9.26322 4.54813 8.95142 4.877C8.63963 5.20587 8.22539 5.4191 7.77657 5.48177C7.32774 5.54443 6.87094 5.4528 6.481 5.2219M7.5 10.5004C7.5 9.70475 7.18393 8.94169 6.62132 8.37908C6.05871 7.81647 5.29565 7.5004 4.5 7.5004C3.70435 7.5004 2.94129 7.81647 2.37868 8.37908C1.81607 8.94169 1.5 9.70475 1.5 10.5004" stroke="#A1A1A1" stroke-linecap="round" stroke-linejoin="round"/>
<path d="M10.5 8.5C10.5 7.70435 10.1839 6.94129 9.62132 6.37868C9.05871 5.81607 8.29565 5.5 7.5 5.5" stroke="#A1A1A1" stroke-linecap="round" stroke-linejoin="round"/>
</svg>
