<svg width="48" height="48" viewBox="0 0 48 48" fill="none" xmlns="http://www.w3.org/2000/svg">
<rect width="48" height="48" rx="4" fill="#EFF6FF"/>
<path d="M34 16H14M15 16V16.656C15 17.623 15.228 18.571 15.66 19.4L16.208 20.454C17.186 22.33 17.263 24.652 16.414 26.609L15.294 29.191C15.0992 29.6429 14.9992 30.1299 15 30.622V32M33 16V16.656C33.0029 17.6103 32.7765 18.5514 32.34 19.4L31.791 20.454C30.814 22.33 30.737 24.652 31.586 26.609L32.706 29.191C32.9 29.635 33 30.125 33 30.622V32M17 24H31M16.5 27H31.5M26 19C25.755 19.613 25.254 20 24.706 20H23.294C22.746 20 22.245 19.613 22 19" stroke="#155DFC" stroke-width="1.5" stroke-linecap="round" stroke-linejoin="round"/>
</svg>
